<?xml version="1.0" encoding="iso-8859-1"?>
<!-- Generator: Adobe Illustrator 16.0.0, SVG Export Plug-In . SVG Version: 6.00 Build 0)  -->
<!DOCTYPE svg PUBLIC "-//W3C//DTD SVG 1.1//EN" "http://www.w3.org/Graphics/SVG/1.1/DTD/svg11.dtd">
<svg version="1.1" id="Layer_1" xmlns="http://www.w3.org/2000/svg" xmlns:xlink="http://www.w3.org/1999/xlink" x="0px" y="0px"
	 width="198.6px" height="61.6px" viewBox="0 0 198.6 61.6" enable-background="new 0 0 198.6 61.6" xml:space="preserve">
<g>
	<path fill="#407E8C" d="M31.6,0.3c-9.5-0.8-20.1,2-28.3,7C5.8,6.9,8.5,7,10.9,8c1.2,0.5,2.3,1.3,3.4,1.9c0.8,0.4,1.5,1,2.2,1.7
		c2.8,2.8,3.7,6.9,3.7,10.8c2.4-1,5-1.8,7.5-2.5c1.3-0.3,2.7-0.6,4.1-0.8c1.4-0.2,2.7-0.3,4.1-0.4c1.3-0.1,2.6-0.1,3.8,0.1
		c1.4,0.1,2.9,0.4,4.2,0.8c2.7,0.8,5.4,2.2,7.2,4.3c1.8,2.1,2.7,4.8,2.5,7.5c0,0.3,0.2,0.3,0.3,0.1c0.6-1.4,0.8-4.4,0.8-5.2
		C54.7,8.9,44.2,1.4,31.6,0.3z"/>
	<g id="XMLID_4_">
		<path fill="#407E8C" d="M6.8,7.8C5.2,7.8,3.7,8,2.3,8.4C2,8.5,1.8,8.6,1.5,8.6c0,0,0,0,0,0c0,0-0.1,0-0.1,0l0,0
			C1.2,8.7,1.1,8.8,0.9,8.9c0,0,0,0,0,0c-0.4,0.3-0.8,0.7-1,1.1c-0.2,0.6-0.3,1.3-0.3,1.9c0,0.3,0,0.7,0,1C-0.4,19.6,5,25,11.6,25
			c1.7,0,3.3-0.4,4.8-1c0,0,0,0,0,0c0,0,0,0,0,0c0.1,0,0.4-0.2,0.8-0.4c0,0,0,0,0,0c0.3-0.1,0.6-0.3,1-0.5V23V19
			C18.3,12.8,14.4,7.8,6.8,7.8z"/>
	</g>
	<path fill="#A58D66" d="M48.6,22.5c-2.1-1.1-5.3-2.2-9.7-2.2c0.1,0.2,0.2,0.3,0.2,0.5c0.1,0.3,0.1,0.6,0.1,1c0,2.1-0.4,4.1-1.2,6
		c-1,2.5-2.7,4.9-4.9,7c-3.3,3.2-7.8,5.9-13.1,7.9l0,0c-1.8,3.4-3.6,19.2,8.5,14.8c0.6-0.2,1.2-0.5,1.8-0.8c0,0,0,0,0,0
		C38.8,53,45,47.6,49.1,41.6C54.4,32.1,53.3,25.3,48.6,22.5z"/>
	<path fill="#407E8C" d="M22.6,59.1C22.6,59.1,22.6,59.1,22.6,59.1L22.6,59.1c-2.4-0.2-4.3-2.3-4.3-4.7V19c0-6.2-3.9-11.2-11.5-11.2
		C5.2,7.8,3.7,8,2.3,8.4C2,8.5,1.8,8.6,1.5,8.6c0,0,0,0,0,0c0,0-0.1,0-0.1,0l0,0C1.2,8.7,1.1,8.8,0.9,8.9c0,0,0,0,0,0
		c-0.4,0.3-0.8,0.7-1,1.1c-0.2,0.6-0.3,1.3-0.3,1.9c0,0.3,0,0.7,0,1v43.7c0,0.1,0,0.2,0,0.4c0,2.6,2.1,4.7,4.7,4.7
		c6.8,0,12.8-0.8,18.3-2.3h0c0,0,0.1,0,0.1,0l0,0c0,0,0,0,0-0.1c0,0,0-0.1,0-0.1v0C22.7,59.2,22.7,59.1,22.6,59.1z"/>
	<g>
		<g>
			<g>
				<path fill="#407E8C" d="M77.3,26.8c0,0-4.5,0-7.2,0c-0.6,0-1.1,0.2-1.5,0.6c-0.4,0.4-0.6,0.9-0.6,1.5c0,4.6,0,15.4,0,15.4
					c0,5.2,2.2,7.4,6.6,7.4h2.5c6.9,0,11.9-4.7,11.9-12.4S84,26.8,77.3,26.8 M76.8,47.6h-1.3c-1.8,0-2.5-0.9-2.5-3.6
					c0,0,0-9.5,0-12.3c0-0.4,0.3-0.8,0.8-0.8c1.1,0,3,0,3,0c4.1,0,7.2,2.8,7.2,8.3S80.8,47.6,76.8,47.6"/>
				<path fill="#407E8C" d="M105.5,47.6h-7.6c-1.7,0-2.4-0.7-2.4-3.4c0,0,0-1.5,0-2.3c0-0.1,0.1-0.3,0.2-0.4
					c0.1-0.1,0.2-0.2,0.4-0.2c1.4,0,5.3,0,7.2,0c0.3,0,0.5-0.1,0.7-0.3c0.2-0.2,0.3-0.5,0.3-0.7c0-0.8,0-1.8,0-1.8
					c0-0.9-0.3-1.2-1-1.2c0,0-5.5,0-7.2,0c-0.1,0-0.3-0.1-0.4-0.2c-0.1-0.1-0.2-0.2-0.2-0.4c0-1.2,0-4,0-5.2c0-0.3,0.3-0.6,0.6-0.6
					c1.7,0,6.8,0,8.9,0c0.5,0,1-0.4,1-0.9c0.1-0.7,0.2-1.4,0.2-2c0-0.9-0.4-1.3-1-1.3c0,0-8.5,0-12.5,0c-1.2,0-2.1,0.9-2.1,2.1
					c0,4.6,0,15.1,0,15.1c0,4.8,1.4,7.6,6.6,7.6c0,0,5.8,0,8.2,0c0.3,0,0.6-0.1,0.8-0.3s0.3-0.5,0.3-0.8c0-0.8,0-1.8,0-1.8
					C106.4,48,106.1,47.6,105.5,47.6"/>
				<path fill="#407E8C" d="M125.8,48.2c-1,0-1.8-0.5-2.7-1.3c-0.9-0.9-1.7-2-2.6-3.4c3.1-1.2,5.1-3.9,5.1-7.8c0-5.4-3.8-8.7-10-8.7
					c0,0-4.6,0-6.7,0c-0.6,0-1.1,0.5-1.1,1.1c0,4.7,0,22.8,0,22.8c0,0.6,0.4,0.9,1.2,0.9c0,0,1.6,0,2.7,0c0.6,0,1.1-0.5,1.1-1.1
					c0-1.6,0-4.7,0-6.1c0-0.2,0.1-0.3,0.2-0.4c0.1-0.1,0.3-0.1,0.5-0.1c0.5,0.1,1.1,0.2,1.7,0.2c0.4,0,0.7,0.3,0.9,0.6
					c0.8,1.7,1.7,3.3,2.9,4.7c1.6,2,2.9,2.6,4.6,2.6c2.2,0,3.1-1,3.3-2c0.1-0.5,0.1-1.1-0.2-1.6c-0.1-0.2-0.3-0.3-0.5-0.3
					C125.9,48.2,125.8,48.2,125.8,48.2z M115.3,40.1c-0.7,0-1.4,0-2.1-0.2c-0.2,0-0.4-0.3-0.4-0.5c0-1.5,0-6.4,0-8
					c0-0.1,0.1-0.3,0.1-0.4c0.1-0.1,0.2-0.1,0.4-0.1c0.7,0,2,0,2,0c3.3,0,5.2,1.6,5.2,4.6C120.5,38.6,118.5,40.1,115.3,40.1"/>
				<path fill="#407E8C" d="M167.7,26.4c-6.6,0-12,4.5-12,12.9s5.4,12.9,12,12.9c6.6,0,12-4.5,12-12.9S174.3,26.4,167.7,26.4
					 M167.9,48c-3.9,0-7.2-3.4-7.2-9c0-5.8,3.3-8.4,6.8-8.4c3.9,0,7.2,3.4,7.2,9C174.7,45.4,171.4,48,167.9,48"/>
				<path fill="#407E8C" d="M191,37.5c-4-1.2-5.3-2.3-5.3-4c0-1.8,1.5-3,3.6-3c1.9,0,3.3,0.9,4.1,2.6c0.2,0.4,0.7,0.7,1.1,0.6
					c0.9-0.1,1.9-0.4,2.6-0.7c0.6-0.3,0.9-0.8,0.9-1.2c0-0.5-0.1-0.9-0.5-1.4c-1.2-2.1-4.2-4-8.2-4c-5.1,0-8.5,3-8.5,7.2
					c0,4.1,2.8,6.6,7.9,8.1c3.6,1,4.6,2,4.6,3.6c0,1.1-0.6,2.8-4.4,2.8c-2.7,0-3.8-1.7-4.2-2.7c-0.2-0.4-0.6-0.7-1.1-0.6
					c-0.9,0.1-1.8,0.4-2.5,0.7c-0.6,0.3-0.9,0.8-0.9,1.2c0,0.5,0.1,0.9,0.5,1.4c1,1.6,2.9,3.1,5.6,3.7l0,0c0,0,0.1,0,0.2,0
					c0,0,0.1,0,0.1,0c0.1,0,0.3,0.1,0.5,0.1c0,0,0.1,0,0.1,0c1.6,0.2,4.7,0.4,7.5-1c2.4-1.2,3.7-3.4,3.7-6
					C198.2,41.4,195.9,39,191,37.5"/>
				<path fill="#407E8C" d="M155.4,50.5c-0.5-4.9-2.5-22.8-2.5-22.8c-0.1-0.6-0.4-0.9-1.2-0.9c0,0-1.8,0-2.8,0
					c-0.4,0-0.8,0.2-0.9,0.6c-1.1,1.9-4.8,8.4-6,10.4c-0.1,0.1-0.2,0.2-0.3,0.2s-0.3-0.1-0.3-0.2c-1.1-2-4.8-8.4-6-10.4
					c-0.2-0.3-0.6-0.6-0.9-0.6c-1,0-2.8,0-2.8,0c-0.8,0-1.1,0.3-1.2,0.9c0,0-1.9,17.9-2.5,22.8c0,0.3,0.1,0.6,0.3,0.8
					c0.2,0.2,0.5,0.4,0.8,0.4c1.1,0,2.7,0,2.7,0c0.9,0,1.3-0.3,1.4-1c0,0,0.9-9.3,1.3-13.3c0-0.2,0.2-0.4,0.4-0.5
					c0.2-0.1,0.5,0,0.6,0.2c1.4,2.3,4.1,6.2,4.1,6.2c0.3,0.5,0.7,0.8,1.6,0.8h0.6h0.6c0.9,0,1.3-0.3,1.6-0.8c0,0,2.7-3.8,4.1-6.2
					c0.1-0.2,0.4-0.3,0.6-0.2c0.2,0,0.4,0.2,0.4,0.5c0.4,4,1.3,13.3,1.3,13.3c0.1,0.7,0.5,1,1.4,1c0,0,1.6,0,2.7,0
					c0.3,0,0.6-0.1,0.8-0.4C155.3,51.1,155.4,50.8,155.4,50.5z"/>
			</g>
		</g>
	</g>
	<g>
		<linearGradient id="SVGID_1_" gradientUnits="userSpaceOnUse" x1="40.9199" y1="35.127" x2="50.3067" y2="14.2495">
			<stop  offset="0" style="stop-color:#393423;stop-opacity:0"/>
			<stop  offset="1" style="stop-color:#393423"/>
		</linearGradient>
		<path opacity="0.6" fill="url(#SVGID_1_)" d="M43.4,44.5c8.5-8.5,7-16.3,5.4-19.5C46.7,21,41,20.3,39,20.2
			c0.1,0.2,0.2,0.3,0.2,0.5c0.1,0.3,0.1,0.6,0.1,1c0,2.1-0.4,4.1-1.2,6c-1,2.5-2.7,4.9-4.9,7c-0.1,0.1-0.2,0.2-0.3,0.3L43.4,44.5z"
			/>
		<linearGradient id="SVGID_2_" gradientUnits="userSpaceOnUse" x1="31.9707" y1="44.6836" x2="-1.8657" y2="52.469">
			<stop  offset="0" style="stop-color:#393423;stop-opacity:0"/>
			<stop  offset="1" style="stop-color:#393423"/>
		</linearGradient>
		<path opacity="0.6" fill="url(#SVGID_2_)" d="M32.9,35.1c-3.3,3.1-7.6,5.7-12.7,7.6h0c-0.5,1-1.1,3.2-1.2,5.7c0,0,0,0,0,0
			c-0.6,8.8,7.4,7.1,7.4,7.1c7.8-3.4,13.2-7.1,16.8-10.6L32.9,35.1z"/>
	</g>
	<g opacity="0.8">
		<linearGradient id="SVGID_3_" gradientUnits="userSpaceOnUse" x1="43.5547" y1="10.6924" x2="63.3781" y2="33.8705">
			<stop  offset="0" style="stop-color:#083A4F;stop-opacity:0"/>
			<stop  offset="0.8774" style="stop-color:#083A4F"/>
		</linearGradient>
		<path opacity="0.6" fill="url(#SVGID_3_)" d="M54.7,26.1c0,0.6-0.1,2.2-0.4,3.6c0,0,0,0,0,0.1c0,0.2-0.1,0.3-0.1,0.5
			c0,0.3-0.1,0.6-0.2,0.9c0,0,0,0.1,0,0.1c0,0.1,0,0.1-0.1,0.1c0.7-3.3,1-12.1-13.6-15.7c0,0-1-11.2-8.7-15.3
			c1.6,0.1,3.1,0.4,4.6,0.7c0.4,0.1,0.7,0.2,1.1,0.3c0.2,0.1,0.4,0.1,0.5,0.2c0.4,0.1,0.7,0.2,1.1,0.3c0.4,0.1,0.7,0.2,1.1,0.4
			c0.3,0.1,0.7,0.3,1,0.4h0c0.9,0.4,1.7,0.8,2.5,1.2c0,0,0,0,0,0C50.2,7.7,54.7,14.8,54.7,26.1z"/>
		<linearGradient id="SVGID_4_" gradientUnits="userSpaceOnUse" x1="8.9448" y1="39.6748" x2="8.9448" y2="4.7905">
			<stop  offset="0" style="stop-color:#083A4F;stop-opacity:0"/>
			<stop  offset="0.8774" style="stop-color:#083A4F"/>
		</linearGradient>
		<path opacity="0.4" fill="url(#SVGID_4_)" d="M16.5,24C16.5,24,16.5,24,16.5,24C16.4,24,16.4,24,16.5,24c-1.5,0.7-3.1,1-4.8,1
			C7,25,2.9,22.4,0.9,18.5V50h16V23.8C16.7,23.9,16.5,24,16.5,24z"/>
	</g>
	<path fill="#407E8C" d="M76.7,9.9l-1.2,1.4c-0.7-0.6-1.5-0.9-2.3-0.9c-1.7,0-3.1,1.3-3.1,4.7c0,3.3,1.3,4.7,3.1,4.7
		c1.1,0,1.8-0.5,2.5-1.1l1.1,1.5C76,21,74.7,21.7,73,21.7c-3.3,0-5.5-2.3-5.5-6.6c0-4.2,2.4-6.5,5.5-6.5C74.6,8.6,75.6,9.1,76.7,9.9
		z"/>
	<path fill="#407E8C" d="M85.2,19.5l-0.3,2h-7.2V8.9h2.4v10.6H85.2z"/>
	<path fill="#407E8C" d="M85.7,7.7l-0.6-1.2l3.8-2.1l0.9,1.8L85.7,7.7z M86.3,21.4V8.9h2.4v12.6H86.3z"/>
	<path fill="#407E8C" d="M97.1,21.4l-4.3-10.2c0.1,1.1,0.3,2.7,0.3,5v5.1h-2.2V8.9h3L98.3,19c-0.1-0.7-0.3-2.5-0.3-4.3V8.9h2.2v12.6
		H97.1z"/>
	<path fill="#407E8C" d="M102.4,21.4V8.9h2.4v12.6H102.4z"/>
	<path fill="#407E8C" d="M115.5,9.9l-1.2,1.4c-0.7-0.6-1.5-0.9-2.3-0.9c-1.7,0-3.1,1.3-3.1,4.7c0,3.3,1.3,4.7,3.1,4.7
		c1.1,0,1.8-0.5,2.5-1.1l1.1,1.5c-0.8,0.8-2.1,1.5-3.8,1.5c-3.3,0-5.5-2.3-5.5-6.6c0-4.2,2.4-6.5,5.5-6.5
		C113.5,8.6,114.5,9.1,115.5,9.9z"/>
	<path fill="#407E8C" d="M119.2,18.5l-0.8,2.9h-2.5l3.9-12.6h3l3.9,12.6h-2.5l-0.8-2.9H119.2z M121.3,10.7l-1.6,6h3.2L121.3,10.7z"
		/>
</g>
</svg>
